<svg xmlns="http://www.w3.org/2000/svg" xmlns:xlink="http://www.w3.org/1999/xlink" width="1300" zoomAndPan="magnify" viewBox="0 0 974.88 344.999992" height="460" preserveAspectRatio="xMidYMid meet" version="1.0"><defs><g/><clipPath id="455af1fc23"><path d="M 0.15625 76.761719 L 40.875 76.761719 L 40.875 280.898438 L 0.15625 280.898438 Z M 0.15625 76.761719 " clip-rule="nonzero"/></clipPath><clipPath id="94c7e33c2e"><path d="M 134.257812 76.761719 L 174.976562 76.761719 L 174.976562 280.898438 L 134.257812 280.898438 Z M 134.257812 76.761719 " clip-rule="nonzero"/></clipPath><clipPath id="e4a7f59ada"><path d="M 38.511719 166.0625 L 136.152344 166.0625 L 136.152344 191.59375 L 38.511719 191.59375 Z M 38.511719 166.0625 " clip-rule="nonzero"/></clipPath><clipPath id="e01df79ad6"><path d="M 136.0625 166.0625 L 136.0625 191.59375 L 87.285156 169.03125 L 38.511719 191.59375 L 38.511719 166.0625 Z M 136.0625 166.0625 " clip-rule="nonzero"/></clipPath></defs><g clip-path="url(#455af1fc23)"><path fill="#ffffff" d="M 0.15625 76.761719 L 40.875 76.761719 L 40.875 280.832031 L 0.15625 280.832031 Z M 0.15625 76.761719 " fill-opacity="1" fill-rule="nonzero"/></g><g clip-path="url(#94c7e33c2e)"><path fill="#ffffff" d="M 134.257812 76.761719 L 174.976562 76.761719 L 174.976562 280.832031 L 134.257812 280.832031 Z M 134.257812 76.761719 " fill-opacity="1" fill-rule="nonzero"/></g><g clip-path="url(#e4a7f59ada)"><g clip-path="url(#e01df79ad6)"><path fill="#ffffff" d="M 38.511719 166.0625 L 136.054688 166.0625 L 136.054688 191.59375 L 38.511719 191.59375 Z M 38.511719 166.0625 " fill-opacity="1" fill-rule="nonzero"/></g></g><g fill="#ffffff" fill-opacity="1"><g transform="translate(191.78881, 279.569228)"><g><path d="M 66.859375 4.359375 C 57.367188 4.359375 48.941406 3.097656 41.578125 0.578125 C 34.210938 -1.941406 27.960938 -5.378906 22.828125 -9.734375 C 17.691406 -14.097656 13.8125 -19.1875 11.1875 -25 C 8.570312 -30.8125 7.265625 -37.015625 7.265625 -43.609375 C 7.265625 -50.773438 8.570312 -57.507812 11.1875 -63.8125 C 13.8125 -70.113281 17.691406 -75.492188 22.828125 -79.953125 C 27.960938 -84.410156 34.210938 -87.945312 41.578125 -90.5625 C 48.941406 -93.175781 57.367188 -94.484375 66.859375 -94.484375 C 73.453125 -94.484375 79.554688 -93.898438 85.171875 -92.734375 C 90.796875 -91.578125 95.738281 -90.222656 100 -88.671875 C 105.039062 -86.921875 109.5 -84.984375 113.375 -82.859375 L 113.375 -90.125 C 113.375 -103.300781 109.984375 -113.378906 103.203125 -120.359375 C 96.421875 -127.335938 87.21875 -130.828125 75.59375 -130.828125 C 69 -130.828125 63.132812 -129.757812 58 -127.625 C 52.863281 -125.488281 48.453125 -123.160156 44.765625 -120.640625 C 40.503906 -117.546875 36.726562 -114.15625 33.4375 -110.46875 L 21.796875 -120.640625 C 25.679688 -126.066406 30.53125 -130.914062 36.34375 -135.1875 C 41.382812 -138.863281 47.585938 -142.203125 54.953125 -145.203125 C 62.316406 -148.210938 71.132812 -149.71875 81.40625 -149.71875 C 92.257812 -149.71875 102 -148.164062 110.625 -145.0625 C 119.25 -141.96875 126.5625 -137.753906 132.5625 -132.421875 C 138.570312 -127.085938 143.175781 -120.785156 146.375 -113.515625 C 149.570312 -106.253906 151.171875 -98.457031 151.171875 -90.125 L 151.171875 -37.796875 C 151.171875 -31.203125 151.363281 -25.53125 151.75 -20.78125 C 152.144531 -16.03125 152.628906 -12.109375 153.203125 -9.015625 C 153.984375 -5.523438 154.757812 -2.519531 155.53125 0 L 117.734375 0 C 117.160156 -2.132812 116.675781 -4.265625 116.28125 -6.390625 C 115.894531 -8.140625 115.554688 -10.03125 115.265625 -12.0625 C 114.972656 -14.101562 114.828125 -15.894531 114.828125 -17.4375 L 113.375 -17.4375 C 110.28125 -13.375 106.503906 -9.691406 102.046875 -6.390625 C 98.171875 -3.679688 93.375 -1.210938 87.65625 1.015625 C 81.9375 3.242188 75.003906 4.359375 66.859375 4.359375 Z M 75.59375 -14.53125 C 81.40625 -14.53125 86.632812 -15.738281 91.28125 -18.15625 C 95.9375 -20.582031 99.910156 -23.253906 103.203125 -26.171875 C 106.890625 -29.648438 110.28125 -33.523438 113.375 -37.796875 L 113.375 -65.40625 C 110.28125 -67.15625 106.890625 -68.804688 103.203125 -70.359375 C 99.910156 -71.710938 95.9375 -72.921875 91.28125 -73.984375 C 86.632812 -75.054688 81.40625 -75.59375 75.59375 -75.59375 C 67.445312 -75.59375 60.5625 -72.632812 54.9375 -66.71875 C 49.320312 -60.8125 46.515625 -53.109375 46.515625 -43.609375 C 46.515625 -35.460938 49.320312 -28.578125 54.9375 -22.953125 C 60.5625 -17.335938 67.445312 -14.53125 75.59375 -14.53125 Z M 75.59375 -14.53125 "/></g></g></g><g fill="#ffffff" fill-opacity="1"><g transform="translate(361.857254, 279.569228)"><g><path d="M 66.859375 4.359375 C 57.367188 4.359375 48.941406 3.097656 41.578125 0.578125 C 34.210938 -1.941406 27.960938 -5.378906 22.828125 -9.734375 C 17.691406 -14.097656 13.8125 -19.1875 11.1875 -25 C 8.570312 -30.8125 7.265625 -37.015625 7.265625 -43.609375 C 7.265625 -50.773438 8.570312 -57.507812 11.1875 -63.8125 C 13.8125 -70.113281 17.691406 -75.492188 22.828125 -79.953125 C 27.960938 -84.410156 34.210938 -87.945312 41.578125 -90.5625 C 48.941406 -93.175781 57.367188 -94.484375 66.859375 -94.484375 C 73.453125 -94.484375 79.554688 -93.898438 85.171875 -92.734375 C 90.796875 -91.578125 95.738281 -90.222656 100 -88.671875 C 105.039062 -86.921875 109.5 -84.984375 113.375 -82.859375 L 113.375 -90.125 C 113.375 -103.300781 109.984375 -113.378906 103.203125 -120.359375 C 96.421875 -127.335938 87.21875 -130.828125 75.59375 -130.828125 C 69 -130.828125 63.132812 -129.757812 58 -127.625 C 52.863281 -125.488281 48.453125 -123.160156 44.765625 -120.640625 C 40.503906 -117.546875 36.726562 -114.15625 33.4375 -110.46875 L 21.796875 -120.640625 C 25.679688 -126.066406 30.53125 -130.914062 36.34375 -135.1875 C 41.382812 -138.863281 47.585938 -142.203125 54.953125 -145.203125 C 62.316406 -148.210938 71.132812 -149.71875 81.40625 -149.71875 C 92.257812 -149.71875 102 -148.164062 110.625 -145.0625 C 119.25 -141.96875 126.5625 -137.753906 132.5625 -132.421875 C 138.570312 -127.085938 143.175781 -120.785156 146.375 -113.515625 C 149.570312 -106.253906 151.171875 -98.457031 151.171875 -90.125 L 151.171875 -37.796875 C 151.171875 -31.203125 151.363281 -25.53125 151.75 -20.78125 C 152.144531 -16.03125 152.628906 -12.109375 153.203125 -9.015625 C 153.984375 -5.523438 154.757812 -2.519531 155.53125 0 L 117.734375 0 C 117.160156 -2.132812 116.675781 -4.265625 116.28125 -6.390625 C 115.894531 -8.140625 115.554688 -10.03125 115.265625 -12.0625 C 114.972656 -14.101562 114.828125 -15.894531 114.828125 -17.4375 L 113.375 -17.4375 C 110.28125 -13.375 106.503906 -9.691406 102.046875 -6.390625 C 98.171875 -3.679688 93.375 -1.210938 87.65625 1.015625 C 81.9375 3.242188 75.003906 4.359375 66.859375 4.359375 Z M 75.59375 -14.53125 C 81.40625 -14.53125 86.632812 -15.738281 91.28125 -18.15625 C 95.9375 -20.582031 99.910156 -23.253906 103.203125 -26.171875 C 106.890625 -29.648438 110.28125 -33.523438 113.375 -37.796875 L 113.375 -65.40625 C 110.28125 -67.15625 106.890625 -68.804688 103.203125 -70.359375 C 99.910156 -71.710938 95.9375 -72.921875 91.28125 -73.984375 C 86.632812 -75.054688 81.40625 -75.59375 75.59375 -75.59375 C 67.445312 -75.59375 60.5625 -72.632812 54.9375 -66.71875 C 49.320312 -60.8125 46.515625 -53.109375 46.515625 -43.609375 C 46.515625 -35.460938 49.320312 -28.578125 54.9375 -22.953125 C 60.5625 -17.335938 67.445312 -14.53125 75.59375 -14.53125 Z M 75.59375 -14.53125 "/></g></g></g><g fill="#ffffff" fill-opacity="1"><g transform="translate(531.925698, 279.569228)"><g><path d="M 66.859375 4.359375 C 55.816406 4.359375 46.320312 2.566406 38.375 -1.015625 C 30.425781 -4.597656 23.835938 -8.617188 18.609375 -13.078125 C 12.398438 -18.117188 7.164062 -23.9375 2.90625 -30.53125 L 14.53125 -40.703125 C 17.832031 -35.660156 21.90625 -31.300781 26.75 -27.625 C 30.625 -24.320312 35.46875 -21.3125 41.28125 -18.59375 C 47.09375 -15.882812 53.679688 -14.53125 61.046875 -14.53125 C 72.097656 -14.53125 80.429688 -17.050781 86.046875 -22.09375 C 91.671875 -27.132812 94.484375 -33.335938 94.484375 -40.703125 C 94.484375 -44.578125 92.445312 -47.773438 88.375 -50.296875 C 84.300781 -52.816406 79.164062 -55.191406 72.96875 -57.421875 C 66.769531 -59.648438 60.128906 -61.972656 53.046875 -64.390625 C 45.972656 -66.816406 39.335938 -69.820312 33.140625 -73.40625 C 26.941406 -76.988281 21.804688 -81.492188 17.734375 -86.921875 C 13.660156 -92.347656 11.625 -99.226562 11.625 -107.5625 C 11.625 -112.988281 12.882812 -118.222656 15.40625 -123.265625 C 17.925781 -128.304688 21.800781 -132.8125 27.03125 -136.78125 C 32.269531 -140.757812 38.8125 -143.910156 46.65625 -146.234375 C 54.507812 -148.554688 63.671875 -149.71875 74.140625 -149.71875 C 83.628906 -149.71875 91.863281 -148.359375 98.84375 -145.640625 C 105.820312 -142.929688 111.734375 -139.929688 116.578125 -136.640625 C 122.003906 -132.765625 126.753906 -128.40625 130.828125 -123.5625 L 119.1875 -113.375 C 115.894531 -116.675781 112.210938 -119.585938 108.140625 -122.109375 C 104.660156 -124.234375 100.546875 -126.21875 95.796875 -128.0625 C 91.046875 -129.90625 85.765625 -130.828125 79.953125 -130.828125 C 70.453125 -130.828125 63.226562 -128.597656 58.28125 -124.140625 C 53.34375 -119.679688 50.875 -114.15625 50.875 -107.5625 C 50.875 -103.6875 52.910156 -100.488281 56.984375 -97.96875 C 61.054688 -95.445312 66.191406 -93.070312 72.390625 -90.84375 C 78.585938 -88.613281 85.222656 -86.285156 92.296875 -83.859375 C 99.378906 -81.441406 106.019531 -78.441406 112.21875 -74.859375 C 118.414062 -71.273438 123.550781 -66.71875 127.625 -61.1875 C 131.695312 -55.664062 133.734375 -48.835938 133.734375 -40.703125 C 133.734375 -34.890625 132.375 -29.269531 129.65625 -23.84375 C 126.945312 -18.414062 122.828125 -13.617188 117.296875 -9.453125 C 111.773438 -5.285156 104.800781 -1.941406 96.375 0.578125 C 87.945312 3.097656 78.109375 4.359375 66.859375 4.359375 Z M 66.859375 4.359375 "/></g></g></g><g fill="#ffffff" fill-opacity="1"><g transform="translate(674.376186, 279.569228)"><g><path d="M 84.3125 4.359375 C 75.976562 4.359375 68.414062 2.953125 61.625 0.140625 C 54.84375 -2.660156 49.03125 -6.53125 44.1875 -11.46875 C 39.34375 -16.414062 35.613281 -22.378906 33 -29.359375 C 30.382812 -36.335938 29.078125 -43.992188 29.078125 -52.328125 L 29.078125 -123.5625 L 4.359375 -123.5625 L 4.359375 -145.359375 L 31.984375 -145.359375 L 50.875 -187.515625 L 66.859375 -187.515625 L 66.859375 -145.359375 L 110.46875 -145.359375 L 106.109375 -123.5625 L 66.859375 -123.5625 L 66.859375 -52.328125 C 66.859375 -39.148438 69.378906 -29.554688 74.421875 -23.546875 C 79.460938 -17.535156 85.664062 -14.53125 93.03125 -14.53125 C 97.488281 -14.53125 101.410156 -15.253906 104.796875 -16.703125 C 108.191406 -18.160156 111.050781 -19.859375 113.375 -21.796875 C 116.09375 -23.929688 118.515625 -26.359375 120.640625 -29.078125 L 130.828125 -17.4375 C 127.722656 -13.375 123.941406 -9.691406 119.484375 -6.390625 C 115.609375 -3.679688 110.8125 -1.210938 105.09375 1.015625 C 99.375 3.242188 92.445312 4.359375 84.3125 4.359375 Z M 84.3125 4.359375 "/></g></g></g><g fill="#ffffff" fill-opacity="1"><g transform="translate(805.198038, 279.569228)"><g><path d="M 93.03125 4.359375 C 81.007812 4.359375 69.957031 2.328125 59.875 -1.734375 C 49.800781 -5.804688 41.082031 -11.332031 33.71875 -18.3125 C 26.351562 -25.289062 20.585938 -33.476562 16.421875 -42.875 C 12.253906 -52.28125 10.171875 -62.21875 10.171875 -72.6875 C 10.171875 -83.53125 12.15625 -93.648438 16.125 -103.046875 C 20.101562 -112.453125 25.582031 -120.59375 32.5625 -127.46875 C 39.539062 -134.351562 47.828125 -139.78125 57.421875 -143.75 C 67.015625 -147.726562 77.429688 -149.71875 88.671875 -149.71875 C 99.910156 -149.71875 110.328125 -147.78125 119.921875 -143.90625 C 129.515625 -140.03125 137.800781 -134.695312 144.78125 -127.90625 C 151.757812 -121.125 157.234375 -113.226562 161.203125 -104.21875 C 165.171875 -95.207031 167.15625 -85.664062 167.15625 -75.59375 C 167.15625 -73.65625 167.054688 -71.910156 166.859375 -70.359375 C 166.671875 -68.804688 166.484375 -67.445312 166.296875 -66.28125 C 166.097656 -64.925781 165.898438 -63.664062 165.703125 -62.5 L 49.421875 -62.5 C 50.191406 -55.519531 51.929688 -49.125 54.640625 -43.3125 C 57.359375 -37.5 60.898438 -32.457031 65.265625 -28.1875 C 69.628906 -23.925781 74.664062 -20.582031 80.375 -18.15625 C 86.09375 -15.738281 92.25 -14.53125 98.84375 -14.53125 C 106.207031 -14.53125 112.695312 -15.882812 118.3125 -18.59375 C 123.9375 -21.3125 128.785156 -24.320312 132.859375 -27.625 C 137.503906 -31.300781 141.671875 -35.660156 145.359375 -40.703125 L 156.984375 -30.53125 C 152.722656 -23.9375 147.492188 -18.117188 141.296875 -13.078125 C 136.054688 -8.617188 129.460938 -4.597656 121.515625 -1.015625 C 113.566406 2.566406 104.070312 4.359375 93.03125 4.359375 Z M 127.921875 -84.3125 C 127.921875 -91.289062 126.804688 -97.632812 124.578125 -103.34375 C 122.347656 -109.0625 119.4375 -113.957031 115.84375 -118.03125 C 112.257812 -122.101562 108.09375 -125.253906 103.34375 -127.484375 C 98.601562 -129.710938 93.710938 -130.828125 88.671875 -130.828125 C 83.628906 -130.828125 78.734375 -129.710938 73.984375 -127.484375 C 69.234375 -125.253906 65.015625 -122.101562 61.328125 -118.03125 C 57.648438 -113.957031 54.742188 -109.0625 52.609375 -103.34375 C 50.484375 -97.632812 49.421875 -91.289062 49.421875 -84.3125 Z M 127.921875 -84.3125 "/></g></g></g></svg>