<svg xmlns="http://www.w3.org/2000/svg" xmlns:xlink="http://www.w3.org/1999/xlink" width="1000" zoomAndPan="magnify" viewBox="0 0 750 374.999991" height="500" preserveAspectRatio="xMidYMid meet" version="1.0"><defs><g/><clipPath id="2f80f11025"><path d="M 2.527344 113.441406 L 33.746094 113.441406 L 33.746094 269.949219 L 2.527344 269.949219 Z M 2.527344 113.441406 " clip-rule="nonzero"/></clipPath><clipPath id="14e1132683"><path d="M 105.339844 113.441406 L 136.558594 113.441406 L 136.558594 269.949219 L 105.339844 269.949219 Z M 105.339844 113.441406 " clip-rule="nonzero"/></clipPath><clipPath id="cf414bbeaf"><path d="M 33.144531 180.628906 L 106 180.628906 L 106 199.007812 L 33.144531 199.007812 Z M 33.144531 180.628906 " clip-rule="nonzero"/></clipPath><clipPath id="f4d5aa1856"><path d="M 105.960938 180.628906 L 105.960938 199.007812 L 69.550781 182.167969 L 33.144531 199.007812 L 33.144531 180.628906 Z M 105.960938 180.628906 " clip-rule="nonzero"/></clipPath></defs><g clip-path="url(#2f80f11025)"><path fill="#ffffff" d="M 2.527344 113.441406 L 33.746094 113.441406 L 33.746094 269.898438 L 2.527344 269.898438 Z M 2.527344 113.441406 " fill-opacity="1" fill-rule="nonzero"/></g><g clip-path="url(#14e1132683)"><path fill="#ffffff" d="M 105.339844 113.441406 L 136.558594 113.441406 L 136.558594 269.898438 L 105.339844 269.898438 Z M 105.339844 113.441406 " fill-opacity="1" fill-rule="nonzero"/></g><g clip-path="url(#cf414bbeaf)"><g clip-path="url(#f4d5aa1856)"><path fill="#ffffff" d="M 33.144531 180.628906 L 105.941406 180.628906 L 105.941406 199.007812 L 33.144531 199.007812 Z M 33.144531 180.628906 " fill-opacity="1" fill-rule="nonzero"/></g></g><g fill="#ffffff" fill-opacity="1"><g transform="translate(149.450171, 268.931554)"><g><path d="M 51.265625 3.34375 C 43.984375 3.34375 37.519531 2.375 31.875 0.4375 C 26.226562 -1.488281 21.4375 -4.125 17.5 -7.46875 C 13.5625 -10.8125 10.585938 -14.710938 8.578125 -19.171875 C 6.578125 -23.628906 5.578125 -28.382812 5.578125 -33.4375 C 5.578125 -38.9375 6.578125 -44.097656 8.578125 -48.921875 C 10.585938 -53.753906 13.5625 -57.878906 17.5 -61.296875 C 21.4375 -64.710938 26.226562 -67.421875 31.875 -69.421875 C 37.519531 -71.429688 43.984375 -72.4375 51.265625 -72.4375 C 56.316406 -72.4375 60.992188 -71.988281 65.296875 -71.09375 C 69.609375 -70.207031 73.398438 -69.171875 76.671875 -67.984375 C 80.535156 -66.640625 83.953125 -65.15625 86.921875 -63.53125 L 86.921875 -69.09375 C 86.921875 -79.195312 84.320312 -86.921875 79.125 -92.265625 C 73.925781 -97.617188 66.867188 -100.296875 57.953125 -100.296875 C 52.898438 -100.296875 48.40625 -99.476562 44.46875 -97.84375 C 40.53125 -96.207031 37.148438 -94.425781 34.328125 -92.5 C 31.054688 -90.125 28.15625 -87.523438 25.625 -84.703125 L 16.71875 -92.5 C 19.6875 -96.65625 23.398438 -100.367188 27.859375 -103.640625 C 31.722656 -106.460938 36.476562 -109.023438 42.125 -111.328125 C 47.769531 -113.628906 54.53125 -114.78125 62.40625 -114.78125 C 70.726562 -114.78125 78.195312 -113.59375 84.8125 -111.21875 C 91.425781 -108.84375 97.035156 -105.609375 101.640625 -101.515625 C 106.242188 -97.429688 109.769531 -92.601562 112.21875 -87.03125 C 114.675781 -81.46875 115.90625 -75.488281 115.90625 -69.09375 L 115.90625 -28.96875 C 115.90625 -23.914062 116.050781 -19.566406 116.34375 -15.921875 C 116.644531 -12.285156 117.019531 -9.28125 117.46875 -6.90625 C 118.0625 -4.226562 118.65625 -1.925781 119.25 0 L 90.265625 0 C 89.828125 -1.632812 89.457031 -3.269531 89.15625 -4.90625 C 88.851562 -6.238281 88.59375 -7.6875 88.375 -9.25 C 88.15625 -10.8125 88.046875 -12.1875 88.046875 -13.375 L 86.921875 -13.375 C 84.546875 -10.25 81.648438 -7.425781 78.234375 -4.90625 C 75.265625 -2.820312 71.585938 -0.925781 67.203125 0.78125 C 62.816406 2.488281 57.503906 3.34375 51.265625 3.34375 Z M 57.953125 -11.140625 C 62.410156 -11.140625 66.421875 -12.066406 69.984375 -13.921875 C 73.554688 -15.785156 76.601562 -17.832031 79.125 -20.0625 C 81.945312 -22.738281 84.546875 -25.707031 86.921875 -28.96875 L 86.921875 -50.15625 C 84.546875 -51.488281 81.945312 -52.75 79.125 -53.9375 C 76.601562 -54.976562 73.554688 -55.90625 69.984375 -56.71875 C 66.421875 -57.539062 62.410156 -57.953125 57.953125 -57.953125 C 51.710938 -57.953125 46.4375 -55.6875 42.125 -51.15625 C 37.8125 -46.625 35.65625 -40.71875 35.65625 -33.4375 C 35.65625 -27.195312 37.8125 -21.921875 42.125 -17.609375 C 46.4375 -13.296875 51.710938 -11.140625 57.953125 -11.140625 Z M 57.953125 -11.140625 "/></g></g></g><g fill="#ffffff" fill-opacity="1"><g transform="translate(279.837708, 268.931554)"><g><path d="M 51.265625 3.34375 C 43.984375 3.34375 37.519531 2.375 31.875 0.4375 C 26.226562 -1.488281 21.4375 -4.125 17.5 -7.46875 C 13.5625 -10.8125 10.585938 -14.710938 8.578125 -19.171875 C 6.578125 -23.628906 5.578125 -28.382812 5.578125 -33.4375 C 5.578125 -38.9375 6.578125 -44.097656 8.578125 -48.921875 C 10.585938 -53.753906 13.5625 -57.878906 17.5 -61.296875 C 21.4375 -64.710938 26.226562 -67.421875 31.875 -69.421875 C 37.519531 -71.429688 43.984375 -72.4375 51.265625 -72.4375 C 56.316406 -72.4375 60.992188 -71.988281 65.296875 -71.09375 C 69.609375 -70.207031 73.398438 -69.171875 76.671875 -67.984375 C 80.535156 -66.640625 83.953125 -65.15625 86.921875 -63.53125 L 86.921875 -69.09375 C 86.921875 -79.195312 84.320312 -86.921875 79.125 -92.265625 C 73.925781 -97.617188 66.867188 -100.296875 57.953125 -100.296875 C 52.898438 -100.296875 48.40625 -99.476562 44.46875 -97.84375 C 40.53125 -96.207031 37.148438 -94.425781 34.328125 -92.5 C 31.054688 -90.125 28.15625 -87.523438 25.625 -84.703125 L 16.71875 -92.5 C 19.6875 -96.65625 23.398438 -100.367188 27.859375 -103.640625 C 31.722656 -106.460938 36.476562 -109.023438 42.125 -111.328125 C 47.769531 -113.628906 54.53125 -114.78125 62.40625 -114.78125 C 70.726562 -114.78125 78.195312 -113.59375 84.8125 -111.21875 C 91.425781 -108.84375 97.035156 -105.609375 101.640625 -101.515625 C 106.242188 -97.429688 109.769531 -92.601562 112.21875 -87.03125 C 114.675781 -81.46875 115.90625 -75.488281 115.90625 -69.09375 L 115.90625 -28.96875 C 115.90625 -23.914062 116.050781 -19.566406 116.34375 -15.921875 C 116.644531 -12.285156 117.019531 -9.28125 117.46875 -6.90625 C 118.0625 -4.226562 118.65625 -1.925781 119.25 0 L 90.265625 0 C 89.828125 -1.632812 89.457031 -3.269531 89.15625 -4.90625 C 88.851562 -6.238281 88.59375 -7.6875 88.375 -9.25 C 88.15625 -10.8125 88.046875 -12.1875 88.046875 -13.375 L 86.921875 -13.375 C 84.546875 -10.25 81.648438 -7.425781 78.234375 -4.90625 C 75.265625 -2.820312 71.585938 -0.925781 67.203125 0.78125 C 62.816406 2.488281 57.503906 3.34375 51.265625 3.34375 Z M 57.953125 -11.140625 C 62.410156 -11.140625 66.421875 -12.066406 69.984375 -13.921875 C 73.554688 -15.785156 76.601562 -17.832031 79.125 -20.0625 C 81.945312 -22.738281 84.546875 -25.707031 86.921875 -28.96875 L 86.921875 -50.15625 C 84.546875 -51.488281 81.945312 -52.75 79.125 -53.9375 C 76.601562 -54.976562 73.554688 -55.90625 69.984375 -56.71875 C 66.421875 -57.539062 62.410156 -57.953125 57.953125 -57.953125 C 51.710938 -57.953125 46.4375 -55.6875 42.125 -51.15625 C 37.8125 -46.625 35.65625 -40.71875 35.65625 -33.4375 C 35.65625 -27.195312 37.8125 -21.921875 42.125 -17.609375 C 46.4375 -13.296875 51.710938 -11.140625 57.953125 -11.140625 Z M 57.953125 -11.140625 "/></g></g></g><g fill="#ffffff" fill-opacity="1"><g transform="translate(410.225245, 268.931554)"><g><path d="M 51.265625 3.34375 C 42.796875 3.34375 35.515625 1.96875 29.421875 -0.78125 C 23.328125 -3.53125 18.273438 -6.613281 14.265625 -10.03125 C 9.503906 -13.894531 5.492188 -18.351562 2.234375 -23.40625 L 11.140625 -31.203125 C 13.671875 -27.335938 16.789062 -23.992188 20.5 -21.171875 C 23.476562 -18.648438 27.195312 -16.347656 31.65625 -14.265625 C 36.113281 -12.179688 41.164062 -11.140625 46.8125 -11.140625 C 55.28125 -11.140625 61.664062 -13.070312 65.96875 -16.9375 C 70.28125 -20.800781 72.4375 -25.554688 72.4375 -31.203125 C 72.4375 -34.171875 70.875 -36.617188 67.75 -38.546875 C 64.632812 -40.484375 60.695312 -42.304688 55.9375 -44.015625 C 51.1875 -45.722656 46.097656 -47.503906 40.671875 -49.359375 C 35.253906 -51.222656 30.164062 -53.53125 25.40625 -56.28125 C 20.65625 -59.03125 16.71875 -62.484375 13.59375 -66.640625 C 10.476562 -70.804688 8.921875 -76.082031 8.921875 -82.46875 C 8.921875 -86.625 9.882812 -90.632812 11.8125 -94.5 C 13.738281 -98.363281 16.707031 -101.816406 20.71875 -104.859375 C 24.738281 -107.910156 29.753906 -110.328125 35.765625 -112.109375 C 41.785156 -113.890625 48.8125 -114.78125 56.84375 -114.78125 C 64.125 -114.78125 70.4375 -113.738281 75.78125 -111.65625 C 81.132812 -109.582031 85.664062 -107.285156 89.375 -104.765625 C 93.539062 -101.785156 97.179688 -98.441406 100.296875 -94.734375 L 91.390625 -86.921875 C 88.859375 -89.453125 86.035156 -91.679688 82.921875 -93.609375 C 80.242188 -95.242188 77.082031 -96.765625 73.4375 -98.171875 C 69.800781 -99.585938 65.753906 -100.296875 61.296875 -100.296875 C 54.015625 -100.296875 48.476562 -98.585938 44.6875 -95.171875 C 40.894531 -91.753906 39 -87.519531 39 -82.46875 C 39 -79.5 40.5625 -77.046875 43.6875 -75.109375 C 46.8125 -73.179688 50.75 -71.363281 55.5 -69.65625 C 60.25 -67.945312 65.335938 -66.160156 70.765625 -64.296875 C 76.191406 -62.441406 81.28125 -60.140625 86.03125 -57.390625 C 90.789062 -54.640625 94.726562 -51.144531 97.84375 -46.90625 C 100.96875 -42.675781 102.53125 -37.441406 102.53125 -31.203125 C 102.53125 -26.742188 101.488281 -22.429688 99.40625 -18.265625 C 97.320312 -14.109375 94.160156 -10.429688 89.921875 -7.234375 C 85.691406 -4.046875 80.34375 -1.488281 73.875 0.4375 C 67.414062 2.375 59.878906 3.34375 51.265625 3.34375 Z M 51.265625 3.34375 "/></g></g></g><g fill="#ffffff" fill-opacity="1"><g transform="translate(519.438735, 268.931554)"><g><path d="M 64.640625 3.34375 C 58.242188 3.34375 52.445312 2.265625 47.25 0.109375 C 42.050781 -2.046875 37.59375 -5.015625 33.875 -8.796875 C 30.164062 -12.585938 27.304688 -17.15625 25.296875 -22.5 C 23.285156 -27.851562 22.28125 -33.726562 22.28125 -40.125 L 22.28125 -94.734375 L 3.34375 -94.734375 L 3.34375 -111.4375 L 24.515625 -111.4375 L 39 -143.765625 L 51.265625 -143.765625 L 51.265625 -111.4375 L 84.703125 -111.4375 L 81.359375 -94.734375 L 51.265625 -94.734375 L 51.265625 -40.125 C 51.265625 -30.019531 53.195312 -22.660156 57.0625 -18.046875 C 60.925781 -13.441406 65.679688 -11.140625 71.328125 -11.140625 C 74.742188 -11.140625 77.75 -11.695312 80.34375 -12.8125 C 82.945312 -13.925781 85.140625 -15.226562 86.921875 -16.71875 C 89.003906 -18.351562 90.863281 -20.207031 92.5 -22.28125 L 100.296875 -13.375 C 97.921875 -10.25 95.023438 -7.425781 91.609375 -4.90625 C 88.640625 -2.820312 84.960938 -0.925781 80.578125 0.78125 C 76.191406 2.488281 70.878906 3.34375 64.640625 3.34375 Z M 64.640625 3.34375 "/></g></g></g><g fill="#ffffff" fill-opacity="1"><g transform="translate(619.736819, 268.931554)"><g><path d="M 71.328125 3.34375 C 62.109375 3.34375 53.632812 1.785156 45.90625 -1.328125 C 38.1875 -4.453125 31.503906 -8.6875 25.859375 -14.03125 C 20.210938 -19.382812 15.789062 -25.664062 12.59375 -32.875 C 9.394531 -40.082031 7.796875 -47.695312 7.796875 -55.71875 C 7.796875 -64.039062 9.316406 -71.804688 12.359375 -79.015625 C 15.410156 -86.222656 19.609375 -92.460938 24.953125 -97.734375 C 30.304688 -103.015625 36.660156 -107.175781 44.015625 -110.21875 C 51.367188 -113.257812 59.359375 -114.78125 67.984375 -114.78125 C 76.597656 -114.78125 84.582031 -113.296875 91.9375 -110.328125 C 99.289062 -107.359375 105.644531 -103.269531 111 -98.0625 C 116.351562 -92.863281 120.550781 -86.8125 123.59375 -79.90625 C 126.632812 -73 128.15625 -65.679688 128.15625 -57.953125 C 128.15625 -56.460938 128.082031 -55.125 127.9375 -53.9375 C 127.789062 -52.75 127.644531 -51.707031 127.5 -50.8125 C 127.34375 -49.78125 127.191406 -48.816406 127.046875 -47.921875 L 37.890625 -47.921875 C 38.484375 -42.566406 39.820312 -37.660156 41.90625 -33.203125 C 43.988281 -28.753906 46.695312 -24.894531 50.03125 -21.625 C 53.375 -18.351562 57.238281 -15.785156 61.625 -13.921875 C 66.007812 -12.066406 70.726562 -11.140625 75.78125 -11.140625 C 81.425781 -11.140625 86.40625 -12.179688 90.71875 -14.265625 C 95.03125 -16.347656 98.742188 -18.648438 101.859375 -21.171875 C 105.421875 -23.992188 108.613281 -27.335938 111.4375 -31.203125 L 120.359375 -23.40625 C 117.085938 -18.351562 113.078125 -13.894531 108.328125 -10.03125 C 104.316406 -6.613281 99.265625 -3.53125 93.171875 -0.78125 C 87.078125 1.96875 79.796875 3.34375 71.328125 3.34375 Z M 98.078125 -64.640625 C 98.078125 -69.984375 97.222656 -74.847656 95.515625 -79.234375 C 93.804688 -83.617188 91.578125 -87.367188 88.828125 -90.484375 C 86.078125 -93.609375 82.878906 -96.023438 79.234375 -97.734375 C 75.597656 -99.441406 71.847656 -100.296875 67.984375 -100.296875 C 64.117188 -100.296875 60.363281 -99.441406 56.71875 -97.734375 C 53.082031 -96.023438 49.851562 -93.609375 47.03125 -90.484375 C 44.207031 -87.367188 41.976562 -83.617188 40.34375 -79.234375 C 38.707031 -74.847656 37.890625 -69.984375 37.890625 -64.640625 Z M 98.078125 -64.640625 "/></g></g></g></svg>